<svg width="80" height="26" viewBox="0 0 80 26" fill="none" xmlns="http://www.w3.org/2000/svg">
<path fill-rule="evenodd" clip-rule="evenodd" d="M24.9822 3.91072C24.69 2.3737 23.8254 1.16133 22.7255 0.745781C20.7367 0 12.757 0 12.757 0C12.757 0 4.78136 0 2.78845 0.745781C1.69262 1.15559 0.828062 2.36811 0.531763 3.91072C-5.00127e-08 6.69997 0 12.5232 0 12.5232C0 12.5232 -5.00127e-08 18.3467 0.531763 21.1359C0.823971 22.6729 1.68853 23.8853 2.78845 24.3008C4.78136 25.0466 12.757 25.0466 12.757 25.0466C12.757 25.0466 20.7367 25.0466 22.7255 24.3008C23.8214 23.891 24.6859 22.6785 24.9822 21.1359C25.5139 18.3467 25.5139 12.5234 25.5139 12.5234C25.5139 12.5234 25.5139 6.69997 24.9822 3.91072V3.91072Z" fill="#FF0000"/>
<path fill-rule="evenodd" clip-rule="evenodd" d="M10.208 17.8913L16.8361 12.5233L10.208 7.1554V17.8913Z" fill="#F3EFEF"/>
<path fill-rule="evenodd" clip-rule="evenodd" d="M37.0329 22.7866C36.5296 22.3085 36.1684 21.5685 35.9573 20.561C35.7462 19.5534 35.6366 18.2157 35.6366 16.542V14.2651C35.6366 12.5745 35.7584 11.2198 36.0019 10.1949C36.2455 9.17042 36.627 8.42478 37.1424 7.9579C37.6579 7.49116 38.3358 7.25213 39.1759 7.25213C40.004 7.25213 40.6656 7.49116 41.1647 7.96937C41.664 8.44743 42.0293 9.19322 42.2607 10.2064C42.492 11.2198 42.6057 12.5745 42.6057 14.2594V16.5364C42.6057 18.21 42.492 19.5534 42.2687 20.5666C42.0456 21.5798 41.6803 22.3256 41.1729 22.7923C40.6696 23.2591 39.9836 23.4984 39.1191 23.4984C38.2343 23.5038 37.5362 23.2648 37.0329 22.7866V22.7866ZM39.8619 20.3276C39.9999 19.8152 40.073 18.9784 40.073 17.823V12.9332C40.073 11.806 40.004 10.9863 39.8619 10.4627C39.7239 9.94459 39.4763 9.68275 39.1232 9.68275C38.7823 9.68275 38.5427 9.94459 38.4007 10.4627C38.2627 10.9806 38.1897 11.806 38.1897 12.9332V17.823C38.1897 18.9841 38.2546 19.821 38.3886 20.3276C38.5225 20.8399 38.766 21.096 39.1192 21.096C39.4763 21.096 39.7199 20.8399 39.8619 20.3276V20.3276ZM75.7826 16.5819V17.3733C75.7826 18.3807 75.803 19.1321 75.8477 19.6387C75.8882 20.1397 75.9775 20.5097 76.1115 20.7375C76.2454 20.9651 76.4523 21.0847 76.7324 21.0847C77.11 21.0847 77.3696 20.8798 77.5077 20.4698C77.6457 20.06 77.7227 19.3769 77.735 18.4206L79.9064 18.5971C79.9186 18.7336 79.9226 18.9215 79.9226 19.1605C79.9226 20.6122 79.6385 21.6937 79.0743 22.4109C78.5102 23.1281 77.7106 23.4868 76.6756 23.4868C75.4336 23.4868 74.565 22.9403 74.0658 21.8474C73.5665 20.7544 73.319 19.0695 73.319 16.7812V14.0431C73.319 11.6865 73.5787 9.97298 74.0941 8.88593C74.6096 7.80433 75.4944 7.26345 76.7487 7.26345C77.6132 7.26345 78.2748 7.48557 78.7374 7.92951C79.2002 8.37345 79.5249 9.06215 79.7157 10.0015C79.9024 10.9407 79.9998 12.2387 79.9998 13.8894V16.5763H75.7826V16.5819ZM76.1033 9.97871C75.9774 10.2008 75.8922 10.565 75.8476 11.0661C75.8029 11.5669 75.7826 12.3355 75.7826 13.3543V14.4815H77.6253V13.3543C77.6253 12.3467 77.601 11.584 77.5522 11.0661C77.5036 10.548 77.4143 10.178 77.2885 9.96739C77.1626 9.75674 76.9637 9.64863 76.6959 9.64863C76.428 9.64289 76.2291 9.75674 76.1033 9.97871ZM30.904 16.2859L28.0386 1.776H30.5387L31.5413 8.35079C31.797 9.97312 31.9837 11.3507 32.1055 12.4948H32.1785C32.2637 11.675 32.4504 10.3032 32.7427 8.37344L33.7817 1.77026H36.282L33.384 16.2859V23.2477H30.904V16.2859ZM50.7355 7.55956V23.242H48.767L48.5478 21.3237H48.495C47.9592 22.7753 47.1556 23.4982 46.0881 23.4982C45.3454 23.4982 44.7974 23.1567 44.4444 22.4736C44.0912 21.7905 43.9167 20.7261 43.9167 19.2745V7.55956H46.4332V19.0752C46.4332 19.7754 46.4859 20.2764 46.5955 20.5723C46.7051 20.8683 46.8878 21.022 47.1435 21.022C47.3627 21.022 47.5737 20.9308 47.7726 20.7431C47.9714 20.5553 48.1216 20.3161 48.219 20.0259V7.55941L50.7355 7.55956ZM63.6508 7.55956V23.242H61.6822L61.463 21.3237H61.4102C60.8745 22.7753 60.0709 23.4982 59.0034 23.4982C58.2607 23.4982 57.7126 23.1567 57.3596 22.4736C57.0065 21.7905 56.8319 20.7261 56.8319 19.2745V7.55956H59.3484V19.0752C59.3484 19.7754 59.4012 20.2764 59.5108 20.5723C59.6203 20.8683 59.803 21.022 60.0587 21.022C60.2779 21.022 60.4889 20.9308 60.6878 20.7431C60.8867 20.5553 61.0369 20.3161 61.1343 20.0259V7.55941L63.6508 7.55956Z" fill="#FFFDFD"/>
<path fill-rule="evenodd" clip-rule="evenodd" d="M57.5789 4.61669H55.0787V23.2421H52.615V4.61669H50.1147V1.77624H57.5749V4.61669H57.5789ZM71.9838 10.0699C71.8296 9.07946 71.586 8.36222 71.2451 7.91828C70.9042 7.47419 70.4374 7.25222 69.8406 7.25222C69.3781 7.25222 68.9478 7.43433 68.546 7.80442C68.1441 8.16864 67.8357 8.65258 67.6165 9.25024H67.5962V0.984863H65.169V23.2478H67.2471L67.5028 21.7622H67.5556C67.7504 22.2916 68.0426 22.7071 68.4323 23.0144C68.8219 23.3218 69.2523 23.4755 69.7271 23.4755C70.5795 23.4755 71.2045 22.9233 71.6064 21.8247C72.0081 20.7262 72.207 19.007 72.207 16.6675V14.1855C72.2111 12.4322 72.1339 11.0604 71.9838 10.07V10.0699ZM69.6743 16.4681C69.6743 17.6124 69.6418 18.506 69.5729 19.155C69.5079 19.804 69.3943 20.265 69.236 20.5383C69.0776 20.8115 68.8666 20.9481 68.5987 20.9481C68.3917 20.9481 68.201 20.8799 68.0224 20.7432C67.8478 20.6066 67.7017 20.4017 67.5921 20.1284V11.2199C67.6774 10.7928 67.8235 10.4457 68.0306 10.1725C68.2375 9.89923 68.4607 9.76258 68.7042 9.76258C68.9599 9.76258 69.1588 9.90482 69.2968 10.1837C69.4349 10.4628 69.5323 10.9408 69.589 11.6011C69.6419 12.2672 69.6702 13.2121 69.6702 14.4416V16.4681H69.6743Z" fill="#FFFDFD"/>
</svg>
